<?xml version="1.0" encoding="UTF-8" standalone="no"?>
<svg
   viewBox="0 0 256 256"
   width="30"
   height="30"
   version="1.1"
   id="svg2"
   sodipodi:docname="icons8-github.svg"
   inkscape:version="1.3 (0e150ed, 2023-07-21)"
   xmlns:inkscape="http://www.inkscape.org/namespaces/inkscape"
   xmlns:sodipodi="http://sodipodi.sourceforge.net/DTD/sodipodi-0.dtd"
   xmlns="http://www.w3.org/2000/svg"
   xmlns:svg="http://www.w3.org/2000/svg">
  <defs
     id="defs2" />
  <sodipodi:namedview
     id="namedview2"
     pagecolor="#505050"
     bordercolor="#eeeeee"
     borderopacity="1"
     inkscape:showpageshadow="0"
     inkscape:pageopacity="0"
     inkscape:pagecheckerboard="0"
     inkscape:deskcolor="#505050"
     showgrid="false"
     inkscape:zoom="16.7"
     inkscape:cx="15"
     inkscape:cy="15"
     inkscape:window-width="1366"
     inkscape:window-height="699"
     inkscape:window-x="0"
     inkscape:window-y="32"
     inkscape:window-maximized="1"
     inkscape:current-layer="svg2" />
  <g
     fill="#3ebdc3"
     fill-rule="nonzero"
     stroke="none"
     stroke-width="1"
     stroke-linecap="butt"
     stroke-linejoin="miter"
     stroke-miterlimit="10"
     stroke-dasharray="none"
     stroke-dashoffset="0"
     font-family="none"
     font-weight="none"
     font-size="none"
     text-anchor="none"
     style="mix-blend-mode:normal;fill:#6942d2;fill-opacity:1"
     id="g2"
     transform="matrix(1.1250005,0,0,1.1250005,-16.000008,-14.224008)">
    <g
       transform="scale(8.53333)"
       id="g1"
       style="fill:#6942d2;fill-opacity:1">
      <path
         d="M 15,3 C 8.373,3 3,8.373 3,15 3,20.623 6.872,25.328 12.092,26.63 12.036,26.468 12,26.28 12,26.047 v -2.051 c -0.487,0 -1.303,0 -1.508,0 -0.821,0 -1.551,-0.353 -1.905,-1.009 C 8.194,22.258 8.126,21.143 7.152,20.461 6.863,20.234 7.083,19.975 7.416,20.01 c 0.615,0.174 1.125,0.596 1.605,1.222 0.478,0.627 0.703,0.769 1.596,0.769 0.433,0 1.081,-0.025 1.691,-0.121 0.328,-0.833 0.895,-1.6 1.588,-1.962 C 9.9,19.507 7.993,17.519 7.993,14.82 7.993,13.658 8.488,12.534 9.329,11.587 9.053,10.647 8.706,8.73 9.435,8 11.233,8 12.32,9.166 12.581,9.481 13.477,9.174 14.461,9 15.495,9 16.531,9 17.519,9.174 18.417,9.483 18.675,9.17 19.763,8 21.565,8 c 0.732,0.731 0.381,2.656 0.102,3.594 0.836,0.945 1.328,2.066 1.328,3.226 0,2.697 -1.904,4.684 -5.894,5.097 C 18.199,20.49 19,22.1 19,23.313 v 2.734 c 0,0.104 -0.023,0.179 -0.035,0.268 C 23.641,24.676 27,20.236 27,15 27,8.373 21.627,3 15,3 Z"
         id="path1"
         style="fill:#6942d2;fill-opacity:1" />
    </g>
  </g>
</svg>
