<?xml version="1.0" encoding="UTF-8" standalone="no"?>
<svg
   viewBox="0,0,256,256"
   width="50px"
   height="50px"
   version="1.1"
   id="svg2"
   sodipodi:docname="icons8-express-js.svg"
   inkscape:version="1.3 (0e150ed, 2023-07-21)"
   xmlns:inkscape="http://www.inkscape.org/namespaces/inkscape"
   xmlns:sodipodi="http://sodipodi.sourceforge.net/DTD/sodipodi-0.dtd"
   xmlns="http://www.w3.org/2000/svg"
   xmlns:svg="http://www.w3.org/2000/svg">
  <defs
     id="defs2" />
  <sodipodi:namedview
     id="namedview2"
     pagecolor="#505050"
     bordercolor="#eeeeee"
     borderopacity="1"
     inkscape:showpageshadow="0"
     inkscape:pageopacity="0"
     inkscape:pagecheckerboard="0"
     inkscape:deskcolor="#505050"
     showgrid="false"
     inkscape:zoom="10.02"
     inkscape:cx="25"
     inkscape:cy="25"
     inkscape:window-width="1366"
     inkscape:window-height="699"
     inkscape:window-x="0"
     inkscape:window-y="32"
     inkscape:window-maximized="1"
     inkscape:current-layer="svg2" />
  <g
     fill="#3ebdc3"
     fill-rule="nonzero"
     stroke="none"
     stroke-width="1"
     stroke-linecap="butt"
     stroke-linejoin="miter"
     stroke-miterlimit="10"
     stroke-dasharray=""
     stroke-dashoffset="0"
     font-family="none"
     font-weight="none"
     font-size="none"
     text-anchor="none"
     style="mix-blend-mode:normal;fill:#6942d2;fill-opacity:1"
     id="g2">
    <g
       transform="scale(5.12,5.12)"
       id="g1"
       style="fill:#6942d2;fill-opacity:1">
      <path
         d="M49.729,11h-0.85c-1.051,0 -2.041,0.49 -2.68,1.324l-8.7,11.377l-8.7,-11.377c-0.637,-0.834 -1.628,-1.324 -2.678,-1.324h-0.85l10.971,14.346l-11.206,14.654h0.85c1.051,0 2.041,-0.49 2.679,-1.324l8.935,-11.684l8.935,11.684c0.638,0.834 1.628,1.324 2.679,1.324h0.85l-11.206,-14.654zM21.289,34.242c-2.554,3.881 -7.582,5.87 -12.389,4.116c-4.229,-1.543 -6.9,-5.747 -6.9,-10.249v-1.109h12v0h11v-4.134c0,-6.505 -4.818,-12.2 -11.295,-12.809c-7.432,-0.699 -13.705,5.153 -13.705,12.443v5.573c0,5.371 3.215,10.364 8.269,12.183c6.603,2.376 13.548,-1.17 15.896,-7.256v0h-0.638c-0.911,0 -1.738,0.481 -2.238,1.242zM2,22.5c0,-5.79 4.71,-10.5 10.5,-10.5c5.79,0 10.5,4.71 10.5,10.5v2.5h-21z"
         id="path1"
         style="fill:#6942d2;fill-opacity:1" />
    </g>
  </g>
</svg>
