<?xml version="1.0" encoding="UTF-8" standalone="no"?>
<svg
   viewBox="0,0,256,256"
   width="50px"
   height="50px"
   version="1.1"
   id="svg2"
   sodipodi:docname="icons8-angular.svg"
   inkscape:version="1.3 (0e150ed, 2023-07-21)"
   xmlns:inkscape="http://www.inkscape.org/namespaces/inkscape"
   xmlns:sodipodi="http://sodipodi.sourceforge.net/DTD/sodipodi-0.dtd"
   xmlns="http://www.w3.org/2000/svg"
   xmlns:svg="http://www.w3.org/2000/svg">
  <defs
     id="defs2" />
  <sodipodi:namedview
     id="namedview2"
     pagecolor="#505050"
     bordercolor="#eeeeee"
     borderopacity="1"
     inkscape:showpageshadow="0"
     inkscape:pageopacity="0"
     inkscape:pagecheckerboard="0"
     inkscape:deskcolor="#505050"
     showgrid="false"
     inkscape:zoom="10.02"
     inkscape:cx="25"
     inkscape:cy="25"
     inkscape:window-width="1366"
     inkscape:window-height="699"
     inkscape:window-x="0"
     inkscape:window-y="32"
     inkscape:window-maximized="1"
     inkscape:current-layer="svg2" />
  <g
     fill="#3ebdc3"
     fill-rule="nonzero"
     stroke="none"
     stroke-width="1"
     stroke-linecap="butt"
     stroke-linejoin="miter"
     stroke-miterlimit="10"
     stroke-dasharray=""
     stroke-dashoffset="0"
     font-family="none"
     font-weight="none"
     font-size="none"
     text-anchor="none"
     style="mix-blend-mode:normal;fill:#6942d2;fill-opacity:1"
     id="g2">
    <g
       transform="scale(5.12,5.12)"
       id="g1"
       style="fill:#6942d2;fill-opacity:1">
      <path
         d="M24.92969,2.00195c-0.10987,0.0005 -0.22067,0.01869 -0.32617,0.05469l-20.93164,7.28516c-0.444,0.154 -0.72206,0.59745 -0.66406,1.06445l3.30859,27.12305c0.039,0.321 0.22867,0.60381 0.51367,0.75781l17.64844,9.5918c0.148,0.081 0.31256,0.12109 0.47656,0.12109c0.165,0 0.33147,-0.04105 0.48047,-0.12305l17.73828,-9.72266c0.282,-0.155 0.47372,-0.43686 0.51172,-0.75586l3.30664,-27.12109c0.058,-0.469 -0.22288,-0.91636 -0.67188,-1.06836l-21.06641,-7.15625c-0.105,-0.035 -0.21434,-0.05128 -0.32422,-0.05078zM25,7l13,28h-4.4375l-2.78125,-5.99219h-11.5625l-2.78125,5.99219h-4.4375zM25,16.5l-3.91992,8.5h7.83984z"
         id="path1"
         style="fill:#6942d2;fill-opacity:1" />
    </g>
  </g>
</svg>
