<?xml version="1.0" encoding="UTF-8" standalone="no"?>
<svg
   viewBox="0,0,256,256"
   width="50px"
   height="50px"
   version="1.1"
   id="svg3"
   sodipodi:docname="icons8-bootstrap.svg"
   inkscape:version="1.3 (0e150ed, 2023-07-21)"
   xmlns:inkscape="http://www.inkscape.org/namespaces/inkscape"
   xmlns:sodipodi="http://sodipodi.sourceforge.net/DTD/sodipodi-0.dtd"
   xmlns="http://www.w3.org/2000/svg"
   xmlns:svg="http://www.w3.org/2000/svg">
  <defs
     id="defs3" />
  <sodipodi:namedview
     id="namedview3"
     pagecolor="#505050"
     bordercolor="#eeeeee"
     borderopacity="1"
     inkscape:showpageshadow="0"
     inkscape:pageopacity="0"
     inkscape:pagecheckerboard="0"
     inkscape:deskcolor="#505050"
     inkscape:zoom="10.02"
     inkscape:cx="25"
     inkscape:cy="25"
     inkscape:window-width="1366"
     inkscape:window-height="699"
     inkscape:window-x="0"
     inkscape:window-y="32"
     inkscape:window-maximized="1"
     inkscape:current-layer="svg3" />
  <path
     id="path1"
     style="display:inline;mix-blend-mode:normal;fill:#3ebdc3;fill-opacity:1"
     inkscape:label="path1"
     d="m 12.138672,7 c -2.5109976,0 -4.3681563,2.2570806 -4.2851564,4.705078 0.08,2.350998 -0.024485,5.397862 -0.7714844,7.88086 C 6.334032,22.076935 5.0679979,23.651516 3,23.853516 v 2.292968 c 2.0689979,0.202 3.334032,1.776581 4.0820312,4.267578 0.7469993,2.482998 0.8514843,5.529862 0.7714844,7.88086 C 7.7705157,40.742919 9.6276744,43 12.138672,43 h 25.724609 c 2.510998,0 4.36911,-2.257081 4.28711,-4.705078 -0.08,-2.350998 0.02253,-5.397862 0.769531,-7.88086 C 43.668921,27.923065 44.932002,26.348484 47,26.146484 v -2.292968 c -2.067998,-0.202 -3.331079,-1.776581 -4.080078,-4.267578 C 42.173923,17.10294 42.070391,14.056076 42.150391,11.705078 42.233391,9.2570806 40.376232,7 37.865234,7 Z m 5.728515,8.632812 h 7.667969 c 1.673999,0 3.09447,0.442298 4.105469,1.279297 1.014999,0.84 1.550781,2.021017 1.550781,3.416016 0,1.972998 -1.491345,3.76375 -3.402344,4.09375 v 0.0293 c 2.598998,0.301 4.34375,2.145612 4.34375,4.599609 0,1.624999 -0.604048,2.973392 -1.748046,3.900391 -1.141999,0.925999 -2.805596,1.414062 -4.808594,1.414062 h -7.708985 z m 3.052735,2.451172 v 5.484375 h 3.279297 c 2.541997,0 3.942359,-1.008845 3.943359,-2.839843 0,-1.705999 -1.179315,-2.644532 -3.320312,-2.644532 z m 0,7.779297 v 6.054688 h 4.046875 c 2.647997,0 4.048828,-1.053877 4.048828,-3.046875 0,-1.994998 -1.420706,-3.007813 -4.220703,-3.007813 z"
     transform="scale(5.12)" />
</svg>
