<?xml version="1.0" encoding="UTF-8" standalone="no"?>
<svg
   viewBox="0 0 48 48"
   width="48px"
   height="48px"
   version="1.1"
   id="svg10"
   sodipodi:docname="icons8-docker.svg"
   inkscape:version="1.3 (0e150ed, 2023-07-21)"
   xmlns:inkscape="http://www.inkscape.org/namespaces/inkscape"
   xmlns:sodipodi="http://sodipodi.sourceforge.net/DTD/sodipodi-0.dtd"
   xmlns="http://www.w3.org/2000/svg"
   xmlns:svg="http://www.w3.org/2000/svg">
  <defs
     id="defs10" />
  <sodipodi:namedview
     id="namedview10"
     pagecolor="#505050"
     bordercolor="#eeeeee"
     borderopacity="1"
     inkscape:showpageshadow="0"
     inkscape:pageopacity="0"
     inkscape:pagecheckerboard="0"
     inkscape:deskcolor="#505050"
     showgrid="false"
     inkscape:zoom="10.4375"
     inkscape:cx="23.904192"
     inkscape:cy="24"
     inkscape:window-width="1366"
     inkscape:window-height="699"
     inkscape:window-x="0"
     inkscape:window-y="32"
     inkscape:window-maximized="1"
     inkscape:current-layer="svg10" />
  <g
     id="g1"
     style="fill:#6942d2;fill-opacity:1">
    <path
       fill="#2395ec"
       d="M47.527,19.847c-0.13-0.102-1.345-1.007-3.908-1.007c-0.677,0.003-1.352,0.06-2.019,0.171 c-0.496-3.354-3.219-4.93-3.345-5.003l-0.688-0.392l-0.453,0.644c-0.567,0.866-1.068,1.76-1.311,2.763 c-0.459,1.915-0.18,3.713,0.806,5.25C35.417,22.928,33.386,22.986,33,23H1.582c-0.826,0.001-1.496,0.66-1.501,1.474 c-0.037,2.733,0.353,5.553,1.306,8.119c1.089,2.818,2.71,4.894,4.818,6.164C8.567,40.184,12.405,41,16.756,41 c1.965,0.006,3.927-0.169,5.859-0.524c2.686-0.487,5.271-1.413,7.647-2.74c1.958-1.119,3.72-2.542,5.219-4.215 c2.505-2.798,3.997-5.913,5.107-8.682c0.149,0,0.298,0,0.442,0c2.743,0,4.429-1.083,5.359-1.99 c0.618-0.579,1.101-1.284,1.414-2.065L48,20.216L47.527,19.847z"
       id="path1"
       style="fill:#6942d2;fill-opacity:1" />
    <path
       fill="#2395ec"
       d="M8,22H5c-0.552,0-1-0.448-1-1v-3c0-0.552,0.448-1,1-1h3c0.552,0,1,0.448,1,1v3 C9,21.552,8.552,22,8,22z"
       id="path2"
       style="fill:#6942d2;fill-opacity:1" />
    <path
       fill="#2395ec"
       d="M14,22h-3c-0.552,0-1-0.448-1-1v-3c0-0.552,0.448-1,1-1h3c0.552,0,1,0.448,1,1v3 C15,21.552,14.552,22,14,22z"
       id="path3"
       style="fill:#6942d2;fill-opacity:1" />
    <path
       fill="#2395ec"
       d="M20,22h-3c-0.552,0-1-0.448-1-1v-3c0-0.552,0.448-1,1-1h3c0.552,0,1,0.448,1,1v3 C21,21.552,20.552,22,20,22z"
       id="path4"
       style="fill:#6942d2;fill-opacity:1" />
    <path
       fill="#2395ec"
       d="M26,22h-3c-0.552,0-1-0.448-1-1v-3c0-0.552,0.448-1,1-1h3c0.552,0,1,0.448,1,1v3 C27,21.552,26.552,22,26,22z"
       id="path5"
       style="fill:#6942d2;fill-opacity:1" />
    <path
       fill="#2395ec"
       d="M14,16h-3c-0.552,0-1-0.448-1-1v-3c0-0.552,0.448-1,1-1h3c0.552,0,1,0.448,1,1v3 C15,15.552,14.552,16,14,16z"
       id="path6"
       style="fill:#6942d2;fill-opacity:1" />
    <path
       fill="#2395ec"
       d="M20,16h-3c-0.552,0-1-0.448-1-1v-3c0-0.552,0.448-1,1-1h3c0.552,0,1,0.448,1,1v3 C21,15.552,20.552,16,20,16z"
       id="path7"
       style="fill:#6942d2;fill-opacity:1" />
    <path
       fill="#2395ec"
       d="M26,16h-3c-0.552,0-1-0.448-1-1v-3c0-0.552,0.448-1,1-1h3c0.552,0,1,0.448,1,1v3 C27,15.552,26.552,16,26,16z"
       id="path8"
       style="fill:#6942d2;fill-opacity:1" />
    <path
       fill="#2395ec"
       d="M26,10h-3c-0.552,0-1-0.448-1-1V6c0-0.552,0.448-1,1-1h3c0.552,0,1,0.448,1,1v3 C27,9.552,26.552,10,26,10z"
       id="path9"
       style="fill:#6942d2;fill-opacity:1" />
    <path
       fill="#2395ec"
       d="M32,22h-3c-0.552,0-1-0.448-1-1v-3c0-0.552,0.448-1,1-1h3c0.552,0,1,0.448,1,1v3 C33,21.552,32.552,22,32,22z"
       id="path10"
       style="fill:#6942d2;fill-opacity:1" />
  </g>
</svg>
