<?xml version="1.0" encoding="UTF-8" standalone="no"?>
<svg
   viewBox="0,0,256,256"
   width="50px"
   height="50px"
   version="1.1"
   id="svg2"
   sodipodi:docname="icons8-typescript.svg"
   inkscape:version="1.3 (0e150ed, 2023-07-21)"
   xmlns:inkscape="http://www.inkscape.org/namespaces/inkscape"
   xmlns:sodipodi="http://sodipodi.sourceforge.net/DTD/sodipodi-0.dtd"
   xmlns="http://www.w3.org/2000/svg"
   xmlns:svg="http://www.w3.org/2000/svg">
  <defs
     id="defs2" />
  <sodipodi:namedview
     id="namedview2"
     pagecolor="#505050"
     bordercolor="#eeeeee"
     borderopacity="1"
     inkscape:showpageshadow="0"
     inkscape:pageopacity="0"
     inkscape:pagecheckerboard="0"
     inkscape:deskcolor="#505050"
     showgrid="false"
     inkscape:zoom="10.02"
     inkscape:cx="25"
     inkscape:cy="25"
     inkscape:window-width="1366"
     inkscape:window-height="699"
     inkscape:window-x="0"
     inkscape:window-y="32"
     inkscape:window-maximized="1"
     inkscape:current-layer="svg2" />
  <g
     fill="#3ebdc3"
     fill-rule="nonzero"
     stroke="none"
     stroke-width="1"
     stroke-linecap="butt"
     stroke-linejoin="miter"
     stroke-miterlimit="10"
     stroke-dasharray=""
     stroke-dashoffset="0"
     font-family="none"
     font-weight="none"
     font-size="none"
     text-anchor="none"
     style="mix-blend-mode:normal;fill:#6942d2;fill-opacity:1"
     id="g2">
    <g
       transform="scale(5.12,5.12)"
       id="g1"
       style="fill:#6942d2;fill-opacity:1">
      <path
         d="M45,4h-40c-0.553,0 -1,0.448 -1,1v40c0,0.552 0.447,1 1,1h40c0.553,0 1,-0.448 1,-1v-40c0,-0.552 -0.447,-1 -1,-1zM29,26.445h-5v15.555h-4v-15.555h-5v-3.445h14zM30.121,41.112v-4.158c0,0 2.271,1.712 4.996,1.712c2.725,0 2.62,-1.782 2.62,-2.026c0,-2.586 -7.721,-2.586 -7.721,-8.315c0,-7.791 11.25,-4.717 11.25,-4.717l-0.14,3.704c0,0 -1.887,-1.258 -4.018,-1.258c-2.131,0 -2.9,1.013 -2.9,2.096c0,2.795 7.791,2.516 7.791,8.141c0.001,8.664 -11.878,4.821 -11.878,4.821z"
         id="path1"
         style="fill:#6942d2;fill-opacity:1" />
    </g>
  </g>
</svg>
