<?xml version="1.0" encoding="UTF-8" standalone="no"?>
<!-- Created with Inkscape (http://www.inkscape.org/) -->

<svg
   version="1.1"
   id="svg1"
   width="50"
   height="50"
   viewBox="0 0 50 50"
   sodipodi:docname="markdown.svg"
   inkscape:version="1.3 (0e150ed, 2023-07-21)"
   xmlns:inkscape="http://www.inkscape.org/namespaces/inkscape"
   xmlns:sodipodi="http://sodipodi.sourceforge.net/DTD/sodipodi-0.dtd"
   xmlns="http://www.w3.org/2000/svg"
   xmlns:svg="http://www.w3.org/2000/svg">
  <defs
     id="defs1" />
  <sodipodi:namedview
     id="namedview1"
     pagecolor="#505050"
     bordercolor="#eeeeee"
     borderopacity="1"
     inkscape:showpageshadow="0"
     inkscape:pageopacity="0"
     inkscape:pagecheckerboard="0"
     inkscape:deskcolor="#505050"
     showgrid="false"
     showguides="true"
     inkscape:zoom="8.6324681"
     inkscape:cx="28.902511"
     inkscape:cy="31.682712"
     inkscape:window-width="1366"
     inkscape:window-height="699"
     inkscape:window-x="0"
     inkscape:window-y="32"
     inkscape:window-maximized="1"
     inkscape:current-layer="g1" />
  <g
     inkscape:groupmode="layer"
     inkscape:label="Image"
     id="g1">
    <path
       id="rect3"
       style="fill:#6942d2;fill-opacity:1;stroke:none;stroke-width:0.745227;stroke-linecap:round;stroke-linejoin:round;stroke-opacity:1"
       d="m 4.4247279,8.0903312 c -2.2750041,0 -4.10602466,1.83102 -4.10602466,4.1060248 v 24.317388 c 0,2.275004 1.83102056,4.106025 4.10602466,4.106025 H 45.893976 C 48.16898,40.619769 50,38.788748 50,36.513744 V 12.196356 C 50,9.9213512 48.16898,8.0903312 45.893976,8.0903312 Z m 3.8323869,7.8569018 h 3.7072112 l 5.402894,7.366391 5.312651,-7.312537 3.279289,-0.05386 -0.04658,16.258169 h -3.619881 v -9.692311 l -0.606953,-1.029053 -4.405861,6.16122 -4.925483,-6.171409 -0.526899,0.938812 0.05386,9.792744 -3.7130343,0.05677 z m 30.6634592,0.507977 -0.03057,7.941322 5.223865,0.0073 -7.05491,7.782671 -6.881704,-7.747738 5.143812,-0.03493 -0.22415,-7.886012 z"
       inkscape:label="markdown" />
  </g>
</svg>
